<mxfile host="65bd71144e">
    <diagram id="tNJmBUoDxnqjJc0c00nP" name="Page-1">
        <mxGraphModel dx="1247" dy="657" grid="1" gridSize="10" guides="1" tooltips="1" connect="1" arrows="1" fold="1" page="1" pageScale="1" pageWidth="850" pageHeight="1100" math="0" shadow="0">
            <root>
                <mxCell id="0"/>
                <mxCell id="1" parent="0"/>
                <mxCell id="kb47WbbnUSf2NKxiao4H-1" value="" style="whiteSpace=wrap;html=1;aspect=fixed;" parent="1" vertex="1">
                    <mxGeometry x="230" y="660" width="50" height="50" as="geometry"/>
                </mxCell>
                <mxCell id="kb47WbbnUSf2NKxiao4H-2" value="" style="whiteSpace=wrap;html=1;aspect=fixed;" parent="1" vertex="1">
                    <mxGeometry x="282" y="660" width="50" height="50" as="geometry"/>
                </mxCell>
                <mxCell id="kb47WbbnUSf2NKxiao4H-3" value="" style="whiteSpace=wrap;html=1;aspect=fixed;" parent="1" vertex="1">
                    <mxGeometry x="334" y="660" width="50" height="50" as="geometry"/>
                </mxCell>
                <mxCell id="kb47WbbnUSf2NKxiao4H-4" value="2" style="whiteSpace=wrap;html=1;aspect=fixed;fillColor=#B3B3B3;" parent="1" vertex="1">
                    <mxGeometry x="386" y="660" width="50" height="50" as="geometry"/>
                </mxCell>
                <mxCell id="kb47WbbnUSf2NKxiao4H-5" value="" style="whiteSpace=wrap;html=1;aspect=fixed;" parent="1" vertex="1">
                    <mxGeometry x="230" y="712" width="50" height="50" as="geometry"/>
                </mxCell>
                <mxCell id="kb47WbbnUSf2NKxiao4H-6" value="" style="whiteSpace=wrap;html=1;aspect=fixed;" parent="1" vertex="1">
                    <mxGeometry x="282" y="712" width="50" height="50" as="geometry"/>
                </mxCell>
                <mxCell id="kb47WbbnUSf2NKxiao4H-7" value="" style="whiteSpace=wrap;html=1;aspect=fixed;" parent="1" vertex="1">
                    <mxGeometry x="334" y="712" width="50" height="50" as="geometry"/>
                </mxCell>
                <mxCell id="kb47WbbnUSf2NKxiao4H-8" value="4" style="whiteSpace=wrap;html=1;aspect=fixed;fillColor=#4D4D4D;" parent="1" vertex="1">
                    <mxGeometry x="386" y="712" width="50" height="50" as="geometry"/>
                </mxCell>
                <mxCell id="kb47WbbnUSf2NKxiao4H-9" value="" style="whiteSpace=wrap;html=1;aspect=fixed;" parent="1" vertex="1">
                    <mxGeometry x="230" y="764" width="50" height="50" as="geometry"/>
                </mxCell>
                <mxCell id="kb47WbbnUSf2NKxiao4H-10" value="" style="whiteSpace=wrap;html=1;aspect=fixed;" parent="1" vertex="1">
                    <mxGeometry x="282" y="764" width="50" height="50" as="geometry"/>
                </mxCell>
                <mxCell id="kb47WbbnUSf2NKxiao4H-11" value="" style="whiteSpace=wrap;html=1;aspect=fixed;" parent="1" vertex="1">
                    <mxGeometry x="334" y="764" width="50" height="50" as="geometry"/>
                </mxCell>
                <mxCell id="kb47WbbnUSf2NKxiao4H-12" value="4" style="whiteSpace=wrap;html=1;aspect=fixed;fillColor=#4D4D4D;" parent="1" vertex="1">
                    <mxGeometry x="386" y="764" width="50" height="50" as="geometry"/>
                </mxCell>
                <mxCell id="kb47WbbnUSf2NKxiao4H-14" value="" style="whiteSpace=wrap;html=1;aspect=fixed;" parent="1" vertex="1">
                    <mxGeometry x="438" y="660" width="50" height="50" as="geometry"/>
                </mxCell>
                <mxCell id="kb47WbbnUSf2NKxiao4H-15" value="" style="whiteSpace=wrap;html=1;aspect=fixed;" parent="1" vertex="1">
                    <mxGeometry x="438" y="712" width="50" height="50" as="geometry"/>
                </mxCell>
                <mxCell id="kb47WbbnUSf2NKxiao4H-16" value="4" style="whiteSpace=wrap;html=1;aspect=fixed;fillColor=#4D4D4D;" parent="1" vertex="1">
                    <mxGeometry x="438" y="764" width="50" height="50" as="geometry"/>
                </mxCell>
                <mxCell id="kb47WbbnUSf2NKxiao4H-17" value="" style="whiteSpace=wrap;html=1;aspect=fixed;" parent="1" vertex="1">
                    <mxGeometry x="490" y="660" width="50" height="50" as="geometry"/>
                </mxCell>
                <mxCell id="kb47WbbnUSf2NKxiao4H-18" value="" style="whiteSpace=wrap;html=1;aspect=fixed;" parent="1" vertex="1">
                    <mxGeometry x="490" y="712" width="50" height="50" as="geometry"/>
                </mxCell>
                <mxCell id="kb47WbbnUSf2NKxiao4H-19" value="2" style="whiteSpace=wrap;html=1;aspect=fixed;fillColor=#B3B3B3;" parent="1" vertex="1">
                    <mxGeometry x="490" y="764" width="50" height="50" as="geometry"/>
                </mxCell>
                <mxCell id="kb47WbbnUSf2NKxiao4H-20" value="" style="whiteSpace=wrap;html=1;aspect=fixed;" parent="1" vertex="1">
                    <mxGeometry x="542" y="660" width="50" height="50" as="geometry"/>
                </mxCell>
                <mxCell id="kb47WbbnUSf2NKxiao4H-21" value="" style="whiteSpace=wrap;html=1;aspect=fixed;" parent="1" vertex="1">
                    <mxGeometry x="542" y="712" width="50" height="50" as="geometry"/>
                </mxCell>
                <mxCell id="kb47WbbnUSf2NKxiao4H-22" value="" style="whiteSpace=wrap;html=1;aspect=fixed;" parent="1" vertex="1">
                    <mxGeometry x="542" y="764" width="50" height="50" as="geometry"/>
                </mxCell>
                <mxCell id="kb47WbbnUSf2NKxiao4H-23" value="" style="whiteSpace=wrap;html=1;aspect=fixed;" parent="1" vertex="1">
                    <mxGeometry x="230" y="816" width="50" height="50" as="geometry"/>
                </mxCell>
                <mxCell id="kb47WbbnUSf2NKxiao4H-24" value="2" style="whiteSpace=wrap;html=1;aspect=fixed;fillColor=#B3B3B3;" parent="1" vertex="1">
                    <mxGeometry x="282" y="816" width="50" height="50" as="geometry"/>
                </mxCell>
                <mxCell id="kb47WbbnUSf2NKxiao4H-25" value="" style="whiteSpace=wrap;html=1;aspect=fixed;" parent="1" vertex="1">
                    <mxGeometry x="334" y="816" width="50" height="50" as="geometry"/>
                </mxCell>
                <mxCell id="kb47WbbnUSf2NKxiao4H-26" value="" style="whiteSpace=wrap;html=1;aspect=fixed;fillColor=#FFFFFF;" parent="1" vertex="1">
                    <mxGeometry x="386" y="816" width="50" height="50" as="geometry"/>
                </mxCell>
                <mxCell id="kb47WbbnUSf2NKxiao4H-27" value="" style="whiteSpace=wrap;html=1;aspect=fixed;" parent="1" vertex="1">
                    <mxGeometry x="438" y="816" width="50" height="50" as="geometry"/>
                </mxCell>
                <mxCell id="kb47WbbnUSf2NKxiao4H-28" value="" style="whiteSpace=wrap;html=1;aspect=fixed;" parent="1" vertex="1">
                    <mxGeometry x="490" y="816" width="50" height="50" as="geometry"/>
                </mxCell>
                <mxCell id="kb47WbbnUSf2NKxiao4H-29" value="" style="whiteSpace=wrap;html=1;aspect=fixed;" parent="1" vertex="1">
                    <mxGeometry x="542" y="816" width="50" height="50" as="geometry"/>
                </mxCell>
                <mxCell id="kb47WbbnUSf2NKxiao4H-30" value="" style="whiteSpace=wrap;html=1;aspect=fixed;" parent="1" vertex="1">
                    <mxGeometry x="230" y="868" width="50" height="50" as="geometry"/>
                </mxCell>
                <mxCell id="kb47WbbnUSf2NKxiao4H-31" value="2" style="whiteSpace=wrap;html=1;aspect=fixed;fillColor=#B3B3B3;" parent="1" vertex="1">
                    <mxGeometry x="282" y="868" width="50" height="50" as="geometry"/>
                </mxCell>
                <mxCell id="kb47WbbnUSf2NKxiao4H-32" value="" style="whiteSpace=wrap;html=1;aspect=fixed;" parent="1" vertex="1">
                    <mxGeometry x="334" y="868" width="50" height="50" as="geometry"/>
                </mxCell>
                <mxCell id="kb47WbbnUSf2NKxiao4H-33" value="" style="whiteSpace=wrap;html=1;aspect=fixed;fillColor=#FFFFFF;" parent="1" vertex="1">
                    <mxGeometry x="386" y="868" width="50" height="50" as="geometry"/>
                </mxCell>
                <mxCell id="kb47WbbnUSf2NKxiao4H-34" value="" style="whiteSpace=wrap;html=1;aspect=fixed;" parent="1" vertex="1">
                    <mxGeometry x="438" y="868" width="50" height="50" as="geometry"/>
                </mxCell>
                <mxCell id="kb47WbbnUSf2NKxiao4H-35" value="2" style="whiteSpace=wrap;html=1;aspect=fixed;fillColor=#999999;" parent="1" vertex="1">
                    <mxGeometry x="490" y="868" width="50" height="50" as="geometry"/>
                </mxCell>
                <mxCell id="kb47WbbnUSf2NKxiao4H-36" value="2" style="whiteSpace=wrap;html=1;aspect=fixed;fillColor=#999999;" parent="1" vertex="1">
                    <mxGeometry x="542" y="868" width="50" height="50" as="geometry"/>
                </mxCell>
                <mxCell id="5vVB-SHtc3GaDhzHty62-1" value="" style="whiteSpace=wrap;html=1;aspect=fixed;" parent="1" vertex="1">
                    <mxGeometry x="230" y="918" width="50" height="50" as="geometry"/>
                </mxCell>
                <mxCell id="5vVB-SHtc3GaDhzHty62-2" value="" style="whiteSpace=wrap;html=1;aspect=fixed;" parent="1" vertex="1">
                    <mxGeometry x="282" y="918" width="50" height="50" as="geometry"/>
                </mxCell>
                <mxCell id="5vVB-SHtc3GaDhzHty62-3" value="" style="whiteSpace=wrap;html=1;aspect=fixed;" parent="1" vertex="1">
                    <mxGeometry x="334" y="918" width="50" height="50" as="geometry"/>
                </mxCell>
                <mxCell id="5vVB-SHtc3GaDhzHty62-4" value="2" style="whiteSpace=wrap;html=1;aspect=fixed;fillColor=#B3B3B3;" parent="1" vertex="1">
                    <mxGeometry x="386" y="918" width="50" height="50" as="geometry"/>
                </mxCell>
                <mxCell id="5vVB-SHtc3GaDhzHty62-5" value="" style="whiteSpace=wrap;html=1;aspect=fixed;" parent="1" vertex="1">
                    <mxGeometry x="230" y="970" width="50" height="50" as="geometry"/>
                </mxCell>
                <mxCell id="5vVB-SHtc3GaDhzHty62-6" value="2" style="whiteSpace=wrap;html=1;aspect=fixed;fillColor=#B3B3B3;" parent="1" vertex="1">
                    <mxGeometry x="282" y="970" width="50" height="50" as="geometry"/>
                </mxCell>
                <mxCell id="5vVB-SHtc3GaDhzHty62-7" value="2" style="whiteSpace=wrap;html=1;aspect=fixed;fillColor=#B3B3B3;" parent="1" vertex="1">
                    <mxGeometry x="334" y="970" width="50" height="50" as="geometry"/>
                </mxCell>
                <mxCell id="5vVB-SHtc3GaDhzHty62-8" value="2" style="whiteSpace=wrap;html=1;aspect=fixed;fillColor=#B3B3B3;" parent="1" vertex="1">
                    <mxGeometry x="386" y="970" width="50" height="50" as="geometry"/>
                </mxCell>
                <mxCell id="5vVB-SHtc3GaDhzHty62-9" value="" style="whiteSpace=wrap;html=1;aspect=fixed;" parent="1" vertex="1">
                    <mxGeometry x="230" y="1022" width="50" height="50" as="geometry"/>
                </mxCell>
                <mxCell id="5vVB-SHtc3GaDhzHty62-10" value="2" style="whiteSpace=wrap;html=1;aspect=fixed;fillColor=#B3B3B3;" parent="1" vertex="1">
                    <mxGeometry x="282" y="1022" width="50" height="50" as="geometry"/>
                </mxCell>
                <mxCell id="5vVB-SHtc3GaDhzHty62-11" value="2" style="whiteSpace=wrap;html=1;aspect=fixed;fillColor=#B3B3B3;" parent="1" vertex="1">
                    <mxGeometry x="334" y="1022" width="50" height="50" as="geometry"/>
                </mxCell>
                <mxCell id="5vVB-SHtc3GaDhzHty62-12" value="2" style="whiteSpace=wrap;html=1;aspect=fixed;fillColor=#B3B3B3;" parent="1" vertex="1">
                    <mxGeometry x="386" y="1022" width="50" height="50" as="geometry"/>
                </mxCell>
                <mxCell id="5vVB-SHtc3GaDhzHty62-13" value="" style="whiteSpace=wrap;html=1;aspect=fixed;" parent="1" vertex="1">
                    <mxGeometry x="438" y="918" width="50" height="50" as="geometry"/>
                </mxCell>
                <mxCell id="5vVB-SHtc3GaDhzHty62-14" value="" style="whiteSpace=wrap;html=1;aspect=fixed;" parent="1" vertex="1">
                    <mxGeometry x="438" y="970" width="50" height="50" as="geometry"/>
                </mxCell>
                <mxCell id="5vVB-SHtc3GaDhzHty62-15" value="4" style="whiteSpace=wrap;html=1;aspect=fixed;fillColor=#4D4D4D;" parent="1" vertex="1">
                    <mxGeometry x="438" y="1022" width="50" height="50" as="geometry"/>
                </mxCell>
                <mxCell id="5vVB-SHtc3GaDhzHty62-16" value="" style="whiteSpace=wrap;html=1;aspect=fixed;" parent="1" vertex="1">
                    <mxGeometry x="490" y="918" width="50" height="50" as="geometry"/>
                </mxCell>
                <mxCell id="5vVB-SHtc3GaDhzHty62-17" value="" style="whiteSpace=wrap;html=1;aspect=fixed;" parent="1" vertex="1">
                    <mxGeometry x="490" y="970" width="50" height="50" as="geometry"/>
                </mxCell>
                <mxCell id="5vVB-SHtc3GaDhzHty62-18" value="4" style="whiteSpace=wrap;html=1;aspect=fixed;fillColor=#4D4D4D;" parent="1" vertex="1">
                    <mxGeometry x="490" y="1022" width="50" height="50" as="geometry"/>
                </mxCell>
                <mxCell id="5vVB-SHtc3GaDhzHty62-19" value="" style="whiteSpace=wrap;html=1;aspect=fixed;" parent="1" vertex="1">
                    <mxGeometry x="542" y="918" width="50" height="50" as="geometry"/>
                </mxCell>
                <mxCell id="5vVB-SHtc3GaDhzHty62-20" value="" style="whiteSpace=wrap;html=1;aspect=fixed;" parent="1" vertex="1">
                    <mxGeometry x="542" y="970" width="50" height="50" as="geometry"/>
                </mxCell>
                <mxCell id="5vVB-SHtc3GaDhzHty62-21" value="" style="whiteSpace=wrap;html=1;aspect=fixed;" parent="1" vertex="1">
                    <mxGeometry x="542" y="1022" width="50" height="50" as="geometry"/>
                </mxCell>
                <mxCell id="5vVB-SHtc3GaDhzHty62-22" value="" style="whiteSpace=wrap;html=1;aspect=fixed;" parent="1" vertex="1">
                    <mxGeometry x="230" y="1074" width="50" height="50" as="geometry"/>
                </mxCell>
                <mxCell id="5vVB-SHtc3GaDhzHty62-23" value="2" style="whiteSpace=wrap;html=1;aspect=fixed;fillColor=#B3B3B3;" parent="1" vertex="1">
                    <mxGeometry x="282" y="1074" width="50" height="50" as="geometry"/>
                </mxCell>
                <mxCell id="5vVB-SHtc3GaDhzHty62-24" value="" style="whiteSpace=wrap;html=1;aspect=fixed;" parent="1" vertex="1">
                    <mxGeometry x="334" y="1074" width="50" height="50" as="geometry"/>
                </mxCell>
                <mxCell id="5vVB-SHtc3GaDhzHty62-25" value="" style="whiteSpace=wrap;html=1;aspect=fixed;fillColor=#FFFFFF;" parent="1" vertex="1">
                    <mxGeometry x="386" y="1074" width="50" height="50" as="geometry"/>
                </mxCell>
                <mxCell id="5vVB-SHtc3GaDhzHty62-26" value="4" style="whiteSpace=wrap;html=1;aspect=fixed;fillColor=#4D4D4D;" parent="1" vertex="1">
                    <mxGeometry x="438" y="1074" width="50" height="50" as="geometry"/>
                </mxCell>
                <mxCell id="5vVB-SHtc3GaDhzHty62-27" value="2" style="whiteSpace=wrap;html=1;aspect=fixed;fillColor=#B3B3B3;" parent="1" vertex="1">
                    <mxGeometry x="490" y="1074" width="50" height="50" as="geometry"/>
                </mxCell>
                <mxCell id="5vVB-SHtc3GaDhzHty62-28" value="" style="whiteSpace=wrap;html=1;aspect=fixed;" parent="1" vertex="1">
                    <mxGeometry x="542" y="1074" width="50" height="50" as="geometry"/>
                </mxCell>
                <mxCell id="5vVB-SHtc3GaDhzHty62-29" value="" style="whiteSpace=wrap;html=1;aspect=fixed;" parent="1" vertex="1">
                    <mxGeometry x="230" y="1126" width="50" height="50" as="geometry"/>
                </mxCell>
                <mxCell id="5vVB-SHtc3GaDhzHty62-30" value="2" style="whiteSpace=wrap;html=1;aspect=fixed;fillColor=#B3B3B3;" parent="1" vertex="1">
                    <mxGeometry x="282" y="1126" width="50" height="50" as="geometry"/>
                </mxCell>
                <mxCell id="5vVB-SHtc3GaDhzHty62-31" value="" style="whiteSpace=wrap;html=1;aspect=fixed;" parent="1" vertex="1">
                    <mxGeometry x="334" y="1126" width="50" height="50" as="geometry"/>
                </mxCell>
                <mxCell id="5vVB-SHtc3GaDhzHty62-32" value="" style="whiteSpace=wrap;html=1;aspect=fixed;fillColor=#FFFFFF;" parent="1" vertex="1">
                    <mxGeometry x="386" y="1126" width="50" height="50" as="geometry"/>
                </mxCell>
                <mxCell id="5vVB-SHtc3GaDhzHty62-33" value="" style="whiteSpace=wrap;html=1;aspect=fixed;" parent="1" vertex="1">
                    <mxGeometry x="438" y="1126" width="50" height="50" as="geometry"/>
                </mxCell>
                <mxCell id="5vVB-SHtc3GaDhzHty62-34" value="2" style="whiteSpace=wrap;html=1;aspect=fixed;fillColor=#B3B3B3;" parent="1" vertex="1">
                    <mxGeometry x="490" y="1126" width="50" height="50" as="geometry"/>
                </mxCell>
                <mxCell id="5vVB-SHtc3GaDhzHty62-35" value="" style="whiteSpace=wrap;html=1;aspect=fixed;" parent="1" vertex="1">
                    <mxGeometry x="542" y="1126" width="50" height="50" as="geometry"/>
                </mxCell>
                <mxCell id="5vVB-SHtc3GaDhzHty62-36" value="" style="shape=mxgraph.signs.sports.cycling;html=1;pointerEvents=1;fillColor=#000000;strokeColor=none;verticalLabelPosition=bottom;verticalAlign=top;align=center;sketch=0;" parent="1" vertex="1">
                    <mxGeometry x="392" y="1082.5" width="38" height="33" as="geometry"/>
                </mxCell>
                <mxCell id="5vVB-SHtc3GaDhzHty62-37" value="" style="shape=mxgraph.signs.food.fast_food;html=1;pointerEvents=1;fillColor=#000000;strokeColor=none;verticalLabelPosition=bottom;verticalAlign=top;align=center;sketch=0;" parent="1" vertex="1">
                    <mxGeometry x="446" y="722.5" width="34" height="27" as="geometry"/>
                </mxCell>
            </root>
        </mxGraphModel>
    </diagram>
</mxfile>